<svg width="259" height="50" viewBox="0 0 259 50" fill="none" xmlns="http://www.w3.org/2000/svg">
<path d="M41.7266 1.55469H42.0312C42.125 1.55469 42.1797 1.5625 42.1953 1.57812C42.2266 1.59375 42.2578 1.60937 42.2891 1.625C42.3359 1.625 42.375 1.64063 42.4062 1.67188C42.4844 1.73438 42.5938 1.80469 42.7344 1.88281C42.9219 2.02344 43.0156 2.1875 43.0156 2.375C43.0156 2.5625 42.8281 2.95312 42.4531 3.54688C42.0938 4.125 41.1562 5.57812 39.6406 7.90625C36.1406 13.2656 33.0078 18.2344 30.2422 22.8125C25.4609 30.7656 23.0469 34.7656 23 34.8125C22.9531 34.8594 22.9219 34.9062 22.9062 34.9531C22.8906 35.0469 22.8281 35.0938 22.7188 35.0938L22.3906 35.0234L21.7578 35.1875L21.3828 35.1172L20.9844 35.1875H20.8438L19.5312 35.375C18.75 35.375 18.3594 35.1094 18.3594 34.5781C18.3594 34.3594 18.4297 34.0859 18.5703 33.7578C19.0547 32.6172 21.4922 28.4688 25.8828 21.3125C22.9922 21.3906 20.1406 21.4297 17.3281 21.4297L12.2891 21.4062C11.4609 22.7344 10.3281 24.6172 8.89062 27.0547C5.78125 32.3672 4.125 35.0469 3.92188 35.0938C3.71875 35.1562 3.55469 35.1875 3.42969 35.1875C3.30469 35.1875 3.1875 35.1172 3.07812 34.9766C2.96875 34.8203 2.89062 34.7422 2.84375 34.7422C2.8125 34.7422 2.73438 34.7734 2.60938 34.8359C2.48438 34.8984 2.30469 34.9297 2.07031 34.9297L1.53125 34.9062L1.32031 34.7656C1.30469 34.7656 1.28125 34.7891 1.25 34.8359C1.23438 34.8828 1.17969 34.9062 1.08594 34.9062C0.414062 34.9062 0.078125 34.625 0.078125 34.0625C0.078125 33.6875 0.210938 33.1953 0.476562 32.5859C0.742188 31.9766 1.08594 31.3125 1.50781 30.5938C1.94531 29.875 3.05469 28.1797 4.83594 25.5078C6.63281 22.8203 7.53125 21.4688 7.53125 21.4531C7.23438 21.4375 6.89062 21.4219 6.5 21.4062C5.70312 21.4062 5.14062 21.375 4.8125 21.3125C3.92188 21.1562 3.3125 20.4219 2.98438 19.1094C2.8125 18.4688 2.73438 18.0469 2.75 17.8438C2.75 17.4219 2.92969 17.2109 3.28906 17.2109L3.89844 17.375C4.21094 17.3906 4.96094 17.4297 6.14844 17.4922C7.33594 17.5547 8.1875 17.5859 8.70312 17.5859L10.0391 17.5391C12.0703 14.3516 14.5 10.75 17.3281 6.73438C15.2656 8.42188 12.9766 9.26562 10.4609 9.26562C9.27344 9.26562 8.25 8.98438 7.39062 8.42188C6.53125 7.84375 6.10156 7.11719 6.10156 6.24219C6.10156 5.36719 6.42969 4.67969 7.08594 4.17969C7.74219 3.66406 8.36719 3.40625 8.96094 3.40625C9.55469 3.40625 9.85156 3.5 9.85156 3.6875C9.85156 3.75 9.76562 3.82031 9.59375 3.89844C9.4375 3.97656 9.35938 4.05469 9.35938 4.13281C9.35938 4.38281 9.63281 4.60938 10.1797 4.8125C10.7266 5 11.3359 5.09375 12.0078 5.09375C12.6953 5.09375 13.5391 4.89844 14.5391 4.50781C15.5391 4.10156 16.5781 3.58594 17.6562 2.96094C19.1562 2.08594 20.3438 1.35938 21.2188 0.78125C21.7188 0.53125 22.1875 0.40625 22.625 0.40625C23.0625 0.40625 23.375 0.460937 23.5625 0.570312C23.7656 0.664062 23.9141 0.765625 24.0078 0.875C24.1016 0.96875 24.2031 1.10156 24.3125 1.27344C24.4219 1.42969 24.5234 1.55469 24.6172 1.64844C24.7266 1.72656 24.7812 1.82031 24.7812 1.92969C24.7812 2.03906 24.7188 2.21094 24.5938 2.44531C24.4844 2.67969 23.8906 3.63281 22.8125 5.30469C21.7344 6.96094 20.3438 9.08594 18.6406 11.6797C16.9531 14.2578 15.7188 16.1562 14.9375 17.375C19.1094 17.375 23.6172 17.2969 28.4609 17.1406C34.3516 7.84375 37.4609 2.96875 37.7891 2.51562C38.1172 2.0625 38.4141 1.76562 38.6797 1.625C38.9453 1.48438 39.2734 1.41406 39.6641 1.41406L41.7266 1.55469ZM51.3359 17.1875C52.5234 17.1875 53.1172 17.5938 53.1172 18.4062C53.1172 18.8438 53.0156 19.1641 52.8125 19.3672C52.6094 19.5703 52.1719 20.25 51.5 21.4062C50.8438 22.5469 50.1094 24.0156 49.2969 25.8125C48.5 27.5938 47.9844 29.1172 47.75 30.3828C47.7031 30.5391 47.6797 30.7578 47.6797 31.0391C47.6797 31.8984 47.9141 32.3281 48.3828 32.3281C48.8516 32.3281 49.4062 32.1094 50.0469 31.6719C50.6875 31.2188 51.2578 30.7422 51.7578 30.2422C52.2578 29.7266 52.7422 29.2031 53.2109 28.6719C53.6953 28.1406 53.9844 27.8359 54.0781 27.7578C54.1719 27.6797 54.3125 27.6406 54.5 27.6406C54.7969 27.6406 54.9766 27.8672 55.0391 28.3203C55.1016 28.7734 55.1328 29.2422 55.1328 29.7266C55.1328 30.2109 55.0859 30.5469 54.9922 30.7344C54.5391 31.625 53.5391 32.6953 51.9922 33.9453C50.4609 35.1953 49.0625 35.8203 47.7969 35.8203C46.5469 35.8203 45.625 35.4375 45.0312 34.6719C44.4375 33.9062 44.1406 33.0625 44.1406 32.1406C44.1406 31.2031 44.2969 30.3828 44.6094 29.6797C43.3125 31.3672 41.8203 32.7969 40.1328 33.9688C38.4609 35.1406 37.0938 35.7266 36.0312 35.7266C34.9688 35.7266 34.1016 35.4062 33.4297 34.7656C32.5703 33.9688 32.1406 32.8672 32.1406 31.4609C32.1406 30.0391 32.4531 28.6172 33.0781 27.1953C33.7188 25.7578 34.5547 24.4531 35.5859 23.2812C36.6172 22.0938 37.75 21.0156 38.9844 20.0469C41.5781 18.0156 43.9688 17 46.1562 17C47 17 47.6875 17.1406 48.2188 17.4219C48.75 17.7031 49.0859 18.0547 49.2266 18.4766C49.6016 17.9141 49.9141 17.5625 50.1641 17.4219C50.4297 17.2656 50.8203 17.1875 51.3359 17.1875ZM48.2188 19.7891C45.5469 19.7891 42.7812 21.2734 39.9219 24.2422C38.9062 25.3047 37.9688 26.5781 37.1094 28.0625C36.2656 29.5469 35.8438 30.5625 35.8438 31.1094C35.8438 31.6562 36 31.9297 36.3125 31.9297C36.75 31.9297 37.9688 31.0703 39.9688 29.3516C41.9688 27.6172 43.2969 26.3438 43.9531 25.5312C44.6719 24.625 46.0938 22.7109 48.2188 19.7891ZM68.2578 9.26562C68.2578 10.1562 67.8438 11.0547 67.0156 11.9609C66.1875 12.8516 65.3203 13.2969 64.4141 13.2969C63.5234 13.2969 63.0781 12.8281 63.0781 11.8906C63.0781 10.9531 63.4688 10.0625 64.25 9.21875C65.0469 8.35938 65.9219 7.92969 66.875 7.92969C67.2969 7.92969 67.6328 8.04688 67.8828 8.28125C68.1328 8.51562 68.2578 8.84375 68.2578 9.26562ZM64.4609 29.7266C64.4609 30.1953 64.4141 30.5312 64.3203 30.7344C63.5547 32.2969 62.3359 33.5625 60.6641 34.5312C58.9922 35.4844 57.5391 35.9609 56.3047 35.9609C55.0703 35.9609 54.0078 35.5469 53.1172 34.7188C52.2266 33.8906 51.7812 33.0469 51.7812 32.1875C51.7812 31.3281 52.2109 30.0781 53.0703 28.4375C53.9297 26.7969 54.7891 25.2812 55.6484 23.8906C56.5078 22.5 56.9375 21.75 56.9375 21.6406C56.9375 21.5156 56.7734 21.2812 56.4453 20.9375C56.1328 20.5938 55.9766 20.3438 55.9766 20.1875C55.9766 20.0156 56.2969 19.5859 56.9375 18.8984C57.5938 18.1953 58.3828 17.5078 59.3047 16.8359C60.2422 16.1484 60.9531 15.8047 61.4375 15.8047C61.9375 15.8047 62.3828 16.0234 62.7734 16.4609C63.1641 16.8984 63.3594 17.2969 63.3594 17.6562C63.3594 18.0156 61.5 21.3984 57.7812 27.8047C57.7344 27.8984 57.6016 28.1094 57.3828 28.4375C57.1797 28.75 57.0156 29.0156 56.8906 29.2344C56.7812 29.4375 56.6484 29.6875 56.4922 29.9844C56.1797 30.6094 56.0234 31.1328 56.0234 31.5547C56.0234 32.0859 56.3828 32.3516 57.1016 32.3516C57.8203 32.3516 58.5625 32.1094 59.3281 31.625C60.1094 31.125 60.7812 30.5781 61.3438 29.9844C62.8125 28.4062 63.6484 27.6172 63.8516 27.6172C64.2578 27.6172 64.4609 28.3203 64.4609 29.7266ZM70.4141 22.2266C74.1016 18.0391 77.2422 15.9453 79.8359 15.9453C80.4766 15.9453 81 16.1406 81.4062 16.5312C81.8281 16.9062 82.0391 17.3984 82.0391 18.0078C82.0391 18.6172 81.6016 19.6406 80.7266 21.0781C79.8672 22.5 79.0703 23.7031 78.3359 24.6875C77.9453 25.1875 77.5 25.4375 77 25.4375C76.5156 25.4375 76.1328 25.2578 75.8516 24.8984C75.5859 24.5391 75.4531 24.1172 75.4531 23.6328C75.4531 22.5547 76.0312 21.3359 77.1875 19.9766L77.1406 19.9297C76.625 19.9766 75.3438 20.9922 73.2969 22.9766C71.2656 24.9609 69.5312 26.7422 68.0938 28.3203C66.6719 29.8828 65.125 31.7891 63.4531 34.0391C62.9688 34.7109 62.5547 35.0469 62.2109 35.0469C61.8828 35.0469 61.4453 34.9453 60.8984 34.7422C60.3359 34.5234 60 34.3672 59.8906 34.2734C59.7656 34.1797 59.7031 34.0234 59.7031 33.8047C59.7031 33.5859 59.7656 33.3359 59.8906 33.0547C60.0156 32.7578 60.25 32.3438 60.5938 31.8125C60.9219 31.2812 61.4219 30.4219 62.0938 29.2344C62.7812 28.0469 63.8438 26.25 65.2812 23.8438C66.7188 21.4375 67.5781 19.9844 67.8594 19.4844C68.4531 18.4531 68.9375 17.7031 69.3125 17.2344C70.0156 16.3438 71.2031 15.8984 72.875 15.8984C73.25 15.8984 73.4375 16.1328 73.4375 16.6016C73.4375 17.3359 72.7578 18.7188 71.3984 20.75L70.4141 22.2266ZM101.281 11L101.961 10.8359C102.055 10.8359 102.102 10.9297 102.102 11.1172C102.102 11.2891 101.828 11.5781 101.281 11.9844C100.75 12.3906 100.102 12.5938 99.3359 12.5938C98.5859 12.5938 97.9922 12.375 97.5547 11.9375C97.1328 11.5 96.9219 10.9297 96.9219 10.2266C96.9219 8.74219 97.8906 7.27344 99.8281 5.82031C101.766 4.35156 104.148 3.17969 106.977 2.30469C109.805 1.41406 112.516 0.96875 115.109 0.96875C118.906 0.96875 121.727 1.58594 123.57 2.82031C125.43 4.05469 126.359 5.71094 126.359 7.78906C126.359 10.4453 124.516 13.0156 120.828 15.5C118.891 16.8125 116.797 17.8594 114.547 18.6406C117.016 18.9062 118.984 19.7031 120.453 21.0312C121.562 22.0312 122.117 23.3047 122.117 24.8516C122.117 26.3984 121.375 27.9766 119.891 29.5859C118.422 31.1797 116.461 32.5078 114.008 33.5703C111.555 34.6172 109.047 35.1406 106.484 35.1406C103.531 35.1406 101.359 34.4922 99.9688 33.1953C99.3438 32.6016 99.0312 32.0781 99.0312 31.625C99.0312 31.1562 99.1484 30.6641 99.3828 30.1484C98.2422 32.2109 97.4062 33.7656 96.875 34.8125C96.6406 35.2812 96.1641 35.5156 95.4453 35.5156C94.7422 35.5156 94.1953 35.3281 93.8047 34.9531C93.4141 34.5781 93.2188 34.1562 93.2188 33.6875C93.2188 33.2188 93.2891 32.8047 93.4297 32.4453C94.1328 30.6016 96.6094 26.2891 100.859 19.5078C105.125 12.7109 107.734 8.77344 108.688 7.69531C109.188 7.08594 110.32 6.78125 112.086 6.78125C112.789 6.78125 113.141 6.9375 113.141 7.25C113.141 7.48438 112.102 9.24219 110.023 12.5234C107.945 15.8047 106.859 17.5234 106.766 17.6797C108.938 17.0547 111.156 16.2031 113.422 15.125C115.703 14.0312 117.688 12.7969 119.375 11.4219C121.078 10.0469 121.93 8.80469 121.93 7.69531C121.93 5.86719 119.945 4.95312 115.977 4.95312C111.82 4.95312 107.82 6.05469 103.977 8.25781C103.023 8.80469 102.297 9.30469 101.797 9.75781C101.297 10.2109 101.047 10.5312 101.047 10.7188C101.047 10.9062 101.125 11 101.281 11ZM105.5 22.2031C105.219 22.2031 104.906 21.875 104.562 21.2188C103.078 23.5938 101.523 26.2344 99.8984 29.1406C100.633 28.125 101.703 27.6172 103.109 27.6172C104.047 27.6172 104.516 27.7344 104.516 27.9688C104.516 28.0625 104.414 28.1484 104.211 28.2266C103.586 28.4609 103.273 28.8125 103.273 29.2812C103.273 30.4062 104.469 30.9688 106.859 30.9688C110.094 30.9688 113.023 29.8438 115.648 27.5938C117.055 26.4062 117.758 25.3672 117.758 24.4766C117.758 23.9297 117.188 23.3281 116.047 22.6719C114.719 21.9375 112.695 21.5703 109.977 21.5703C108.086 21.5703 106.875 21.6797 106.344 21.8984C105.812 22.1016 105.531 22.2031 105.5 22.2031ZM129.43 42.7812C129.352 42.8594 129.109 43.25 128.703 43.9531C128.312 44.6719 127.891 45.3906 127.438 46.1094C126.984 46.8438 126.422 47.5391 125.75 48.1953C125.094 48.8516 124.539 49.2031 124.086 49.25C123.648 49.3125 123.367 49.3438 123.242 49.3438C121.805 49.3438 121.086 48.6172 121.086 47.1641C121.086 45.4609 121.969 43.4688 123.734 41.1875C124.406 40.3281 125.25 39.3984 126.266 38.3984C127.281 37.4141 127.836 36.8516 127.93 36.7109C128.023 36.5859 129.195 34.3984 131.445 30.1484C129.945 31.7891 128.555 33.125 127.273 34.1562C125.992 35.1719 124.758 35.7422 123.57 35.8672H123.406C122.797 35.8672 122.195 35.6641 121.602 35.2578C121.008 34.8672 120.711 34.1719 120.711 33.1719C120.711 31.6875 121.109 30.25 121.906 28.8594C122.188 28.375 122.672 27.5547 123.359 26.3984C124.062 25.2422 124.711 24.125 125.305 23.0469C125.867 22.1875 126.445 21.1875 127.039 20.0469C127.633 18.9062 128.086 18.0938 128.398 17.6094C128.711 17.1094 129.008 16.8594 129.289 16.8594C129.57 16.8594 129.93 17.0391 130.367 17.3984C130.82 17.7422 131.047 18.1562 131.047 18.6406C131.047 19.125 130.023 21.2266 127.977 24.9453C125.93 28.6641 124.906 30.7812 124.906 31.2969C124.906 31.4219 124.969 31.4844 125.094 31.4844C125.516 31.4844 126.445 30.8906 127.883 29.7031C129.336 28.5 130.938 26.9609 132.688 25.0859C134.641 23.0078 136.172 21.1094 137.281 19.3906C137.422 19.1719 137.531 19.0078 137.609 18.8984C137.703 18.7734 137.812 18.6172 137.938 18.4297C138.078 18.2266 138.188 18.0703 138.266 17.9609C138.359 17.8516 138.461 17.7266 138.57 17.5859C138.695 17.4297 138.805 17.3125 138.898 17.2344C138.992 17.1562 139.094 17.0781 139.203 17C139.375 16.8438 139.562 16.7656 139.766 16.7656C139.984 16.7656 140.305 16.8125 140.727 16.9062C141.164 17 141.422 17.1016 141.5 17.2109C141.594 17.3203 141.688 17.4219 141.781 17.5156C141.938 17.6875 142.016 17.8516 142.016 18.0078C142.016 18.1484 141.953 18.3438 141.828 18.5938C141.703 18.8281 140.977 20.0625 139.648 22.2969C135.742 28.8906 133.055 33.7031 131.586 36.7344C133.961 34.7344 137.305 31.7734 141.617 27.8516C141.789 27.7109 141.961 27.6406 142.133 27.6406C142.617 27.6406 142.859 28.3828 142.859 29.8672C142.859 30.3047 142.781 30.5938 142.625 30.7344C137.953 34.3281 133.555 38.3438 129.43 42.7812ZM160.883 12.0312L160.391 11.9609H160.297C159.906 11.9609 159.5 11.8047 159.078 11.4922C158.672 11.1797 158.469 10.625 158.469 9.82812C158.469 9.03125 158.898 8.125 159.758 7.10938C160.633 6.09375 161.812 5.16406 163.297 4.32031C164.781 3.46094 166.625 2.75781 168.828 2.21094C171.047 1.66406 173.383 1.39062 175.836 1.39062C180.852 1.39062 184.766 2.38281 187.578 4.36719C190.406 6.33594 191.82 8.89844 191.82 12.0547C191.82 14.0234 191.383 15.9922 190.508 17.9609C189.633 19.9297 188.461 21.75 186.992 23.4219C185.523 25.0781 183.797 26.6328 181.812 28.0859C179.828 29.5234 177.75 30.75 175.578 31.7656C170.891 33.9219 166.406 35 162.125 35C160.016 35 158.688 34.8281 158.141 34.4844C157.938 34.375 157.734 34.2109 157.531 33.9922C157.344 33.7578 157.195 33.6016 157.086 33.5234C156.789 33.3359 156.641 32.9375 156.641 32.3281C156.641 31.7031 156.703 31.1406 156.828 30.6406C157.297 28.9688 159.398 25.3438 163.133 19.7656C166.883 14.1719 170.016 9.66406 172.531 6.24219C172.703 6.00781 173.586 5.83594 175.18 5.72656C175.836 5.72656 176.289 5.77344 176.539 5.86719C176.789 5.96094 176.914 6.13281 176.914 6.38281C176.914 6.61719 176.508 7.30469 175.695 8.44531C174.883 9.57031 172.273 13.5312 167.867 20.3281C163.461 27.1094 161.258 30.5938 161.258 30.7812C161.258 30.9688 161.945 31.0625 163.32 31.0625C164.711 31.0625 166.414 30.7734 168.43 30.1953C170.461 29.6016 172.367 28.8281 174.148 27.875C175.93 26.9219 177.633 25.8203 179.258 24.5703C180.883 23.3047 182.273 22.0156 183.43 20.7031C185.961 17.8281 187.227 15.2734 187.227 13.0391C187.227 10.8047 186.203 8.90625 184.156 7.34375C182.125 5.78125 179.336 5 175.789 5C173.398 5 171.141 5.39844 169.016 6.19531C166.891 6.99219 165.43 7.70312 164.633 8.32812C163.836 8.95312 163.438 9.375 163.438 9.59375C163.438 9.71875 163.531 9.78125 163.719 9.78125L164.727 9.59375C164.867 9.59375 164.938 9.625 164.938 9.6875C164.938 9.75 164.805 9.85938 164.539 10.0156C164.273 10.1719 164.055 10.3438 163.883 10.5312C163.727 10.7031 163.32 10.9922 162.664 11.3984C162.008 11.7891 161.414 12 160.883 12.0312ZM204.008 9.26562C204.008 10.1562 203.594 11.0547 202.766 11.9609C201.938 12.8516 201.07 13.2969 200.164 13.2969C199.273 13.2969 198.828 12.8281 198.828 11.8906C198.828 10.9531 199.219 10.0625 200 9.21875C200.797 8.35938 201.672 7.92969 202.625 7.92969C203.047 7.92969 203.383 8.04688 203.633 8.28125C203.883 8.51562 204.008 8.84375 204.008 9.26562ZM200.211 29.7266C200.211 30.1953 200.164 30.5312 200.07 30.7344C199.305 32.2969 198.086 33.5625 196.414 34.5312C194.742 35.4844 193.289 35.9609 192.055 35.9609C190.82 35.9609 189.758 35.5469 188.867 34.7188C187.977 33.8906 187.531 33.0469 187.531 32.1875C187.531 31.3281 187.961 30.0781 188.82 28.4375C189.68 26.7969 190.539 25.2812 191.398 23.8906C192.258 22.5 192.688 21.75 192.688 21.6406C192.688 21.5156 192.523 21.2812 192.195 20.9375C191.883 20.5938 191.727 20.3438 191.727 20.1875C191.727 20.0156 192.047 19.5859 192.688 18.8984C193.344 18.1953 194.133 17.5078 195.055 16.8359C195.992 16.1484 196.703 15.8047 197.188 15.8047C197.688 15.8047 198.133 16.0234 198.523 16.4609C198.914 16.8984 199.109 17.2969 199.109 17.6562C199.109 18.0156 197.25 21.3984 193.531 27.8047C193.484 27.8984 193.352 28.1094 193.133 28.4375C192.93 28.75 192.766 29.0156 192.641 29.2344C192.531 29.4375 192.398 29.6875 192.242 29.9844C191.93 30.6094 191.773 31.1328 191.773 31.5547C191.773 32.0859 192.133 32.3516 192.852 32.3516C193.57 32.3516 194.312 32.1094 195.078 31.625C195.859 31.125 196.531 30.5781 197.094 29.9844C198.562 28.4062 199.398 27.6172 199.602 27.6172C200.008 27.6172 200.211 28.3203 200.211 29.7266ZM216.383 17.1875C217.57 17.1875 218.164 17.5938 218.164 18.4062C218.164 18.8438 218.062 19.1641 217.859 19.3672C217.656 19.5703 217.219 20.25 216.547 21.4062C215.891 22.5469 215.156 24.0156 214.344 25.8125C213.547 27.5938 213.031 29.1172 212.797 30.3828C212.75 30.5391 212.727 30.7578 212.727 31.0391C212.727 31.8984 212.961 32.3281 213.43 32.3281C213.898 32.3281 214.453 32.1094 215.094 31.6719C215.734 31.2188 216.305 30.7422 216.805 30.2422C217.305 29.7266 217.789 29.2031 218.258 28.6719C218.742 28.1406 219.031 27.8359 219.125 27.7578C219.219 27.6797 219.359 27.6406 219.547 27.6406C219.844 27.6406 220.023 27.8672 220.086 28.3203C220.148 28.7734 220.18 29.2422 220.18 29.7266C220.18 30.2109 220.133 30.5469 220.039 30.7344C219.586 31.625 218.586 32.6953 217.039 33.9453C215.508 35.1953 214.109 35.8203 212.844 35.8203C211.594 35.8203 210.672 35.4375 210.078 34.6719C209.484 33.9062 209.188 33.0625 209.188 32.1406C209.188 31.2031 209.344 30.3828 209.656 29.6797C208.359 31.3672 206.867 32.7969 205.18 33.9688C203.508 35.1406 202.141 35.7266 201.078 35.7266C200.016 35.7266 199.148 35.4062 198.477 34.7656C197.617 33.9688 197.188 32.8672 197.188 31.4609C197.188 30.0391 197.5 28.6172 198.125 27.1953C198.766 25.7578 199.602 24.4531 200.633 23.2812C201.664 22.0938 202.797 21.0156 204.031 20.0469C206.625 18.0156 209.016 17 211.203 17C212.047 17 212.734 17.1406 213.266 17.4219C213.797 17.7031 214.133 18.0547 214.273 18.4766C214.648 17.9141 214.961 17.5625 215.211 17.4219C215.477 17.2656 215.867 17.1875 216.383 17.1875ZM213.266 19.7891C210.594 19.7891 207.828 21.2734 204.969 24.2422C203.953 25.3047 203.016 26.5781 202.156 28.0625C201.312 29.5469 200.891 30.5625 200.891 31.1094C200.891 31.6562 201.047 31.9297 201.359 31.9297C201.797 31.9297 203.016 31.0703 205.016 29.3516C207.016 27.6172 208.344 26.3438 209 25.5312C209.719 24.625 211.141 22.7109 213.266 19.7891ZM230.281 31.3906C230.281 32.0781 230.75 32.4219 231.688 32.4219C232.188 32.4219 232.812 32.1719 233.562 31.6719C234.328 31.1719 235.016 30.625 235.625 30.0312C237.25 28.4219 238.172 27.6172 238.391 27.6172C238.797 27.6172 239 28.2031 239 29.375C239 30.5469 238.633 31.3516 237.898 31.7891C235.664 33.8047 233.938 35.0312 232.719 35.4688C232.031 35.7031 231.273 35.8125 230.445 35.7969C229.617 35.7812 228.797 35.4219 227.984 34.7188C227.172 34.0156 226.766 33.1641 226.766 32.1641C226.766 31.1484 227.031 30 227.562 28.7188C228.094 27.4375 228.633 26.3438 229.18 25.4375C229.742 24.5156 230.43 23.4531 231.242 22.25C232.055 21.0312 232.484 20.2734 232.531 19.9766L232.484 19.9297C231.969 19.9766 230.688 20.9922 228.641 22.9766C226.609 24.9609 224.93 26.6875 223.602 28.1562C222.273 29.625 220.688 31.5859 218.844 34.0391C218.328 34.7109 217.906 35.0469 217.578 35.0469C217.25 35.0469 216.812 34.9453 216.266 34.7422C215.703 34.5234 215.359 34.3672 215.234 34.2734C215.109 34.1797 215.047 34.0391 215.047 33.8516C215.047 33.6641 215.102 33.4375 215.211 33.1719C215.32 32.8906 215.43 32.6641 215.539 32.4922C215.633 32.3047 215.797 32.0234 216.031 31.6484C216.266 31.2734 216.727 30.4844 217.414 29.2812C218.117 28.0625 219.188 26.25 220.625 23.8438C222.062 21.4375 222.922 19.9844 223.203 19.4844C223.797 18.4531 224.281 17.7031 224.656 17.2344C225.359 16.3438 226.547 15.8984 228.219 15.8984C228.594 15.8984 228.781 16.1328 228.781 16.6016C228.781 17.3359 228.102 18.7188 226.742 20.75L225.758 22.2266C228.461 19.2266 230.742 17.3281 232.602 16.5312C233.508 16.1406 234.32 15.9453 235.039 15.9453C235.773 15.9453 236.352 16.1406 236.773 16.5312C237.211 16.9219 237.43 17.3594 237.43 17.8438C237.43 18.3125 237.266 18.8828 236.938 19.5547C236.609 20.2109 236.273 20.8047 235.93 21.3359C235.602 21.8516 235.164 22.5078 234.617 23.3047C234.07 24.1016 233.773 24.5391 233.727 24.6172C233.68 24.6797 233.555 24.8672 233.352 25.1797C233.164 25.4766 233.023 25.6953 232.93 25.8359C232.836 25.9766 232.68 26.2266 232.461 26.5859C232.242 26.9297 232.062 27.2188 231.922 27.4531C231.797 27.6875 231.633 27.9766 231.43 28.3203C231.242 28.6641 231.086 28.9609 230.961 29.2109C230.852 29.4609 230.734 29.7344 230.609 30.0312C230.391 30.5781 230.281 31.0312 230.281 31.3906ZM254.68 17.1875C255.867 17.1875 256.461 17.5938 256.461 18.4062C256.461 18.8438 256.359 19.1641 256.156 19.3672C255.953 19.5703 255.516 20.25 254.844 21.4062C254.188 22.5469 253.453 24.0156 252.641 25.8125C251.844 27.5938 251.328 29.1172 251.094 30.3828C251.047 30.5391 251.023 30.7578 251.023 31.0391C251.023 31.8984 251.258 32.3281 251.727 32.3281C252.195 32.3281 252.75 32.1094 253.391 31.6719C254.031 31.2188 254.602 30.7422 255.102 30.2422C255.602 29.7266 256.086 29.2031 256.555 28.6719C257.039 28.1406 257.328 27.8359 257.422 27.7578C257.516 27.6797 257.656 27.6406 257.844 27.6406C258.141 27.6406 258.32 27.8672 258.383 28.3203C258.445 28.7734 258.477 29.2422 258.477 29.7266C258.477 30.2109 258.43 30.5469 258.336 30.7344C257.883 31.625 256.883 32.6953 255.336 33.9453C253.805 35.1953 252.406 35.8203 251.141 35.8203C249.891 35.8203 248.969 35.4375 248.375 34.6719C247.781 33.9062 247.484 33.0625 247.484 32.1406C247.484 31.2031 247.641 30.3828 247.953 29.6797C246.656 31.3672 245.164 32.7969 243.477 33.9688C241.805 35.1406 240.438 35.7266 239.375 35.7266C238.312 35.7266 237.445 35.4062 236.773 34.7656C235.914 33.9688 235.484 32.8672 235.484 31.4609C235.484 30.0391 235.797 28.6172 236.422 27.1953C237.062 25.7578 237.898 24.4531 238.93 23.2812C239.961 22.0938 241.094 21.0156 242.328 20.0469C244.922 18.0156 247.312 17 249.5 17C250.344 17 251.031 17.1406 251.562 17.4219C252.094 17.7031 252.43 18.0547 252.57 18.4766C252.945 17.9141 253.258 17.5625 253.508 17.4219C253.773 17.2656 254.164 17.1875 254.68 17.1875ZM251.562 19.7891C248.891 19.7891 246.125 21.2734 243.266 24.2422C242.25 25.3047 241.312 26.5781 240.453 28.0625C239.609 29.5469 239.188 30.5625 239.188 31.1094C239.188 31.6562 239.344 31.9297 239.656 31.9297C240.094 31.9297 241.312 31.0703 243.312 29.3516C245.312 27.6172 246.641 26.3438 247.297 25.5312C248.016 24.625 249.438 22.7109 251.562 19.7891Z" fill="#27311F"/>
</svg>
